<svg id="图层_1" data-name="图层 1" xmlns="http://www.w3.org/2000/svg" viewBox="0 0 300 300"><defs><style>.cls-1{fill:#989898;}</style></defs><title>3</title><path class="cls-1" d="M0,268c3.31-9.41,6.1-19,10-28.19,12-27.94,31.29-49.69,57.43-65.3,1.66-1,3.27-2.08,5-3.15-6-5.4-12.08-10.08-17.25-15.61a81.82,81.82,0,0,1-1-110.58c22.47-24.84,50.8-33.24,83-24.88,31.53,8.19,51.51,29.38,59.1,61,12.46,51.82-26.91,101.59-80.1,100.67-20.37-.35-35.18,9.79-49.93,20.74C42.79,220,30,244.36,23,272.13,21,280,16.62,283,8.89,282.26c-4.65-.47-6.77-3.8-8.89-7.24ZM115.75,39.53a60.11,60.11,0,0,0-60,60.64c.08,33.86,26.72,60,61,59.92,33.05-.1,59.6-27.22,59.37-60.64C175.88,66.38,148.68,39.37,115.75,39.53Z"/><path class="cls-1" d="M300,253c-4.4,7-9.37,9.34-15.08,6.95-4-1.67-6.86-4.6-6.84-9,.1-17.28-9.81-28.6-22.13-38.77A18.26,18.26,0,0,1,250.2,204c-1.33-4.39.23-8.61,4.43-11.22,4-2.51,8.38-2.78,12.23,0,14.8,10.6,26.62,23.53,31.49,41.68.42,1.57,1.09,3.07,1.65,4.61Z"/><path class="cls-1" d="M224.12,193.86c-3-.56-6.39-.51-9.06-1.83-4.38-2.17-6.41-6.23-5.68-11.24a11.29,11.29,0,0,1,9.73-9.41c3.6-.56,7.34-.45,10.88-1.24,21.67-4.86,35.82-24.58,34-47.07-1.72-21-19.56-37.95-41.13-39.31a21.73,21.73,0,0,1-7.7-1.68,10.62,10.62,0,0,1-5.56-12.2c1.41-5.53,6.13-9,12.41-8.71,16.2.76,30.82,6,42.67,17.18C284,96.58,291,119.08,284,144.76c-7.05,25.92-24.69,41.55-50.83,47.58a20.78,20.78,0,0,1-2.45.48c-2.16.19-4.32.32-6.48.48Z"/><path class="cls-1" d="M229.58,263.72c0,5.45-3.43,10.2-8.18,11.2-5.46,1.15-11.5-2-13.24-7.32-1-3-1.09-6.2-1.64-9.31-3.26-18.2-13.62-31.94-27.6-43.21-5.16-4.16-10.91-7.6-16.48-11.24-5.39-3.53-7.3-9.76-4.44-15.18,2.7-5.13,9.24-7.65,14.63-4.6,30.94,17.48,53.31,41.31,56.88,78.66C229.54,263.05,229.55,263.39,229.58,263.72Z"/></svg>