<svg id="图层_1" data-name="图层 1" xmlns="http://www.w3.org/2000/svg" xmlns:xlink="http://www.w3.org/1999/xlink" viewBox="0 0 300 300"><defs><style>.cls-1{opacity:0.8;}.cls-2{fill:url(#未命名的渐变_11);}.cls-3{fill:#424242;}.cls-4{fill:url(#未命名的渐变_11-2);}.cls-5{fill:url(#未命名的渐变_11-3);}</style><linearGradient id="未命名的渐变_11" x1="40.17" y1="237.91" x2="65.12" y2="261.73" gradientUnits="userSpaceOnUse"><stop offset="0" stop-color="#4cb1ff"/><stop offset="1" stop-color="#2e81f3"/></linearGradient><linearGradient id="未命名的渐变_11-2" x1="181.06" y1="73.58" x2="232.16" y2="122.35" xlink:href="#未命名的渐变_11"/><linearGradient id="未命名的渐变_11-3" x1="170.17" y1="150.91" x2="195.12" y2="174.73" xlink:href="#未命名的渐变_11"/></defs><title>1-2</title><g class="cls-1"><circle class="cls-2" cx="56.5" cy="253.5" r="31.5"/></g><path class="cls-3" d="M296,144.12,157.8,21.84a11.77,11.77,0,0,0-15.6,0L4,144.12a11.77,11.77,0,0,0,7.8,20.59h22.5v65.41a51.06,51.06,0,0,0,51,51h87.82l.18,0a31.42,31.42,0,0,0,31-31.37v-56.9a31.42,31.42,0,0,0-31.39-31.39H127.08A31.42,31.42,0,0,0,95.7,192.83v36.61a11.77,11.77,0,1,0,23.53,0V192.83a7.86,7.86,0,0,1,7.85-7.85h45.84a7.86,7.86,0,0,1,7.85,7.85v56.9a7.86,7.86,0,0,1-7.85,7.85H85.27a27.49,27.49,0,0,1-27.46-27.46V152.94A11.77,11.77,0,0,0,46,141.17h-3.2L150,46.37l107.16,94.8H254a11.77,11.77,0,0,0-11.77,11.77v77.18a27.35,27.35,0,0,1-12.86,23.26,11.77,11.77,0,1,0,12.54,19.92,50.75,50.75,0,0,0,23.86-43.18V164.71h22.5a11.77,11.77,0,0,0,7.8-20.59Zm0,0"/><g class="cls-1"><circle class="cls-4" cx="214.5" cy="105.5" r="64.5"/></g><g class="cls-1"><circle class="cls-5" cx="186.5" cy="166.5" r="31.5"/></g></svg>