<svg id="图层_1" data-name="图层 1" xmlns="http://www.w3.org/2000/svg" viewBox="0 0 300 300"><defs><style>.cls-1{fill:#989898;}</style></defs><title>2</title><path class="cls-1" d="M300,138a29.76,29.76,0,0,0-1.67,4.07c-6.49,26.54-21.63,39.35-48.94,40.72-16.89.85-32.62-2.4-44.65-15.58-2.87-3.14-5.07-6.88-7.93-10.82-10.32,18.07-25.45,27.33-46.32,26.6-20-.7-36.33-7.76-46.4-27.11-1.35,1.64-2.4,2.78-3.32,4C86.33,179.73,67,186.59,43.27,181.57,20.51,176.76,7.83,161.84,2,140.11c-.55-2.06-1.33-4.06-2-6.08V112a13.08,13.08,0,0,0,1-1.69C12.76,80.44,24.61,50.59,36.16,20.61,38.08,15.63,40.68,14,46,14c67.76.18,135.52.05,203.28.17,15.67,0,11.59-2.63,17.5,11.9C278,53.66,289,81.37,300,109ZM196.9,118.2c3.79,5.91,6.74,11.37,10.48,16.2,8.89,11.46,19.69,19.76,35.13,20.13,11.42.27,21.61-4.86,25.63-14s4.71-18.34,1.23-27.73c-7.93-21.41-16.11-42.72-23.75-64.23-1.8-5.07-4.36-6.39-9.43-6.38-57.16.17-114.32.11-171.49.11-1,0-2.18-.33-3,.08-1.85,1-4.48,2-5.11,3.58C47.82,68.8,39.3,91.76,30.68,114.69c-2.09,5.56-1.18,10.76,1.49,15.88,7.71,14.78,25.38,20.92,41.23,14.23,10.11-4.27,17.79-11.58,24.68-19.88l5.94-7.14c10.65,18.88,22,36.68,46,36.52C173.86,154.15,186.16,137.16,196.9,118.2Z"/><path class="cls-1" d="M150.76,286q-49.75,0-99.49,0c-19,0-30.67-11.21-31.08-30.26-.28-12.82-.18-25.66,0-38.5.12-9.65,5.93-15.86,14.41-15.89,7.72,0,13.87,6.62,14.06,15.75.22,10.16,0,20.33.1,30.5,0,7.22,2.39,9.74,9.56,9.75q91.74.07,183.47,0c7.62,0,10.44-3.08,10.49-10.77.06-9.17,0-18.34.06-27.51.06-4.87.58-9.63,4.38-13.38a13.93,13.93,0,0,1,23.45,6.26,26,26,0,0,1,.7,6.42c.06,12.67.1,25.34,0,38-.11,17.52-12.1,29.57-29.63,29.62C217.74,286,184.25,285.94,150.76,286Z"/><path class="cls-1" d="M150.64,98.91q-30,0-59.93,0a14.38,14.38,0,1,1,.06-28.76q59.93,0,119.86,0a14.38,14.38,0,1,1-.06,28.75C190.59,98.93,170.62,98.9,150.64,98.91Z"/></svg>