<svg id="图层_1" data-name="图层 1" xmlns="http://www.w3.org/2000/svg" xmlns:xlink="http://www.w3.org/1999/xlink" viewBox="0 0 300 300"><defs><style>.cls-1,.cls-3{opacity:0.8;}.cls-1{fill:url(#未命名的渐变_11);}.cls-2{fill:#424242;}.cls-4{fill:url(#未命名的渐变_11-2);}.cls-5{fill:url(#未命名的渐变_11-3);}</style><linearGradient id="未命名的渐变_11" x1="199.17" y1="158.91" x2="224.12" y2="182.73" gradientUnits="userSpaceOnUse"><stop offset="0" stop-color="#4cb1ff"/><stop offset="1" stop-color="#2e81f3"/></linearGradient><linearGradient id="未命名的渐变_11-2" x1="37.17" y1="238.91" x2="62.12" y2="262.73" xlink:href="#未命名的渐变_11"/><linearGradient id="未命名的渐变_11-3" x1="181.06" y1="71.58" x2="232.16" y2="120.35" xlink:href="#未命名的渐变_11"/></defs><title>4-2</title><circle class="cls-1" cx="215.5" cy="174.5" r="31.5"/><path class="cls-2" d="M299.68,281.58a39.68,39.68,0,0,1-2.21,3.31c-3.25,4-7.47,5.56-12.42,4.17s-8.5-5-8.2-10.06c1.14-19.53-10.13-32-23.92-42.89-23.72-18.67-51.1-28.58-80.83-32.38-42.7-5.47-81.59,5.74-117.94,27.46-9.6,5.73-18.12,12.9-24.49,22.32a32.51,32.51,0,0,0-6,19.67c0,.67,0,1.33,0,2,0,9.1-4.26,14.35-11.52,14.34S1.33,284.33.55,275.23c-2.28-26.8,12.69-44.39,31.41-59.88,16.91-14,36.67-22.53,57.71-28.31,1.55-.42,3.08-.94,5.36-1.65C66.14,162.9,51.94,134.1,54.66,98c2-25.86,13.53-47.24,33-64.4C126-.32,185.12,3.42,221.4,42.16c34.15,36.47,35.92,103.67-14.76,142.36,2.08.61,3.71,1.13,5.36,1.57,26,7,49.35,18.55,68,38.5a94.06,94.06,0,0,1,19.68,33.07ZM149.91,178.92c40,.06,72.78-32.4,73-72.24s-32.76-73.13-72.72-73.14c-39.76,0-72.61,32.77-72.75,72.6S110.13,178.87,149.91,178.92Z"/><g class="cls-3"><circle class="cls-4" cx="53.5" cy="254.5" r="31.5"/></g><g class="cls-3"><circle class="cls-5" cx="214.5" cy="103.5" r="64.5"/></g></svg>