<svg id="图层_1" data-name="图层 1" xmlns="http://www.w3.org/2000/svg" viewBox="0 0 300 300"><defs><style>.cls-1{fill:#989898;}</style></defs><title>4</title><path class="cls-1" d="M299.68,281.58a39.68,39.68,0,0,1-2.21,3.31c-3.25,4-7.47,5.56-12.42,4.17s-8.5-5-8.2-10.06c1.14-19.53-10.13-32-23.92-42.89-23.72-18.67-51.1-28.58-80.83-32.38-42.7-5.47-81.59,5.74-117.94,27.46-9.6,5.73-18.12,12.9-24.49,22.32a32.51,32.51,0,0,0-6,19.67c0,.67,0,1.33,0,2,0,9.1-4.26,14.35-11.52,14.34S1.33,284.33.55,275.23c-2.28-26.8,12.69-44.39,31.41-59.88,16.91-14,36.67-22.53,57.71-28.31,1.55-.42,3.08-.94,5.36-1.65C66.14,162.9,51.94,134.1,54.66,98c2-25.86,13.53-47.24,33-64.4C126-.32,185.12,3.42,221.4,42.16c34.15,36.47,35.92,103.67-14.76,142.36,2.08.61,3.71,1.13,5.36,1.57,26,7,49.35,18.55,68,38.5a94.06,94.06,0,0,1,19.68,33.07ZM149.91,178.92c40,.06,72.78-32.4,73-72.24s-32.76-73.13-72.72-73.14c-39.76,0-72.61,32.77-72.75,72.6S110.13,178.87,149.91,178.92Z"/></svg>