<svg id="图层_1" data-name="图层 1" xmlns="http://www.w3.org/2000/svg" viewBox="0 0 300 300"><defs><style>.cls-1{fill:#999;}</style></defs><title>1</title><path class="cls-1" d="M296,144.12,157.8,21.84a11.77,11.77,0,0,0-15.6,0L4,144.12a11.77,11.77,0,0,0,7.8,20.59h22.5v65.41a51.06,51.06,0,0,0,51,51h87.82l.18,0a31.42,31.42,0,0,0,31-31.37v-56.9a31.42,31.42,0,0,0-31.39-31.39H127.08A31.42,31.42,0,0,0,95.7,192.83v36.61a11.77,11.77,0,1,0,23.53,0V192.83a7.86,7.86,0,0,1,7.85-7.85h45.84a7.86,7.86,0,0,1,7.85,7.85v56.9a7.86,7.86,0,0,1-7.85,7.85H85.27a27.49,27.49,0,0,1-27.46-27.46V152.94A11.77,11.77,0,0,0,46,141.17h-3.2L150,46.37l107.16,94.8H254a11.77,11.77,0,0,0-11.77,11.77v77.18a27.35,27.35,0,0,1-12.86,23.26,11.77,11.77,0,1,0,12.54,19.92,50.75,50.75,0,0,0,23.86-43.18V164.71h22.5a11.77,11.77,0,0,0,7.8-20.59Zm0,0"/></svg>