<svg id="图层_1" data-name="图层 1" xmlns="http://www.w3.org/2000/svg" viewBox="0 0 400 400"><title>28</title><path d="M240.33,294.94,212.24,323V189.31H187.76V323l-28.09-28.08-17.3,17.31,7.83,7.83,49.8,49.8,57.63-57.63Zm-43.19-28.08c0-.08.08-.08.08-.17a22.82,22.82,0,0,0,5.56,0c0,.09.08.09.08.17Z"/><path d="M400,230.12a102,102,0,0,1-89.8,101.23,41.51,41.51,0,0,1-16.32,0V307.67c2.69.66,5.39,0,8.16,0a34.52,34.52,0,0,0,8.16-1.06,77.52,77.52,0,0,0-12.24-154c-1.47,0-2.86.16-4.33.25.08-1.47.25-2.86.25-4.33a95,95,0,0,0-2.21-20.08,93.83,93.83,0,0,0-183.34,0,95,95,0,0,0-2.21,20.08c0,1.47.17,2.86.25,4.33-1.47-.09-2.86-.25-4.33-.25A77.48,77.48,0,0,0,90.78,306.72,8.5,8.5,0,0,1,98,315.18v7.3a8.67,8.67,0,0,1-9.81,8.59,101.92,101.92,0,0,1-4.89-201.19,118.19,118.19,0,0,1,233.48,0A101.94,101.94,0,0,1,400,230.12Z"/></svg>