<svg id="图层_1" data-name="图层 1" xmlns="http://www.w3.org/2000/svg" viewBox="0 0 400 400"><title>21</title><path d="M319,144.53c-.23-.61-.53-1.14-.76-1.67-.38-.69-.69-1.45-1.07-2.14s-.68-1.44-1.07-2.13-.76-1.45-1.14-2.21l-1.37-2.28c-.46-.77-.91-1.45-1.37-2.21l-1.37-2.29c-.54-.76-.92-1.52-1.37-2.29s-1.15-1.6-1.68-2.36l-.23-.23A131.25,131.25,0,0,0,211.5,69.18c-.6-.08-1.21-.08-1.82-.15-.77,0-1.6-.08-2.44-.08s-1.6-.07-2.44-.15-1.6-.08-2.44-.08-1.52-.15-2.28-.15h-.16c-.91,0-1.82.15-2.74.15s-1.83.08-2.74.16-1.83.07-2.74.15-1.83,0-2.75.07c-.07,0-.23,0-.3.08A131.26,131.26,0,0,0,92.5,124.72c-.39.46-.69.92-1.07,1.38-.46.68-.84,1.37-1.3,2.05s-.83,1.45-1.29,2.14-.92,1.44-1.3,2.13-.91,1.45-1.29,2.13-.92,1.45-1.37,2.21-.84,1.6-1.22,2.36-.84,1.76-1.22,2.59-.84,1.68-1.22,2.52v.38l-.15-.08A130,130,0,0,0,68.57,200c0,4.49.31,8.91.69,13.33a128.47,128.47,0,0,0,3.58,19,125.94,125.94,0,0,0,8.23,23.09c.23.61.53,1.14.76,1.67.38.69.68,1.45,1.07,2.14s.68,1.44,1.06,2.13.76,1.45,1.15,2.21.91,1.52,1.37,2.28.91,1.45,1.37,2.21.91,1.53,1.37,2.29.91,1.52,1.37,2.29,1.14,1.6,1.68,2.36l.38.15-.15.08a131.26,131.26,0,0,0,96.15,55.54c.53.08,1.14.08,1.75.15s1.6.08,2.44.08,1.6.07,2.44.15,1.6.08,2.43.08,1.53.15,2.37.15h.07c.92,0,1.83-.15,2.75-.15s1.82-.08,2.74-.16,1.83-.07,2.74-.15,1.83,0,2.74-.07a.78.78,0,0,0,.38-.08,131.25,131.25,0,0,0,96.08-55.54c.38-.46.69-.92,1.07-1.38.45-.68.84-1.37,1.29-2s.84-1.45,1.3-2.14.91-1.44,1.29-2.13.92-1.45,1.3-2.13.91-1.45,1.37-2.21.84-1.6,1.22-2.36.84-1.76,1.22-2.59.84-1.68,1.22-2.52v-.38l.15.08a125.94,125.94,0,0,0,8.23-23.09,129.77,129.77,0,0,0,3.58-19c.38-4.42.61-8.84.61-13.33A130.11,130.11,0,0,0,319,144.53ZM211.5,88.23a111.86,111.86,0,0,1,79.47,46l-.68.45-1.91,1.07-1.83,1.07-1.9,1.14-1.91,1.07-1.9,1.14L277,142.32l-1.91,1.15-1.9,1.06-1.91,1.15-1.9,1.06-1.91,1.07L265.68,149,263.77,150l-1.9,1.07L260,152.23l-1.9,1.07-1.91,1.14-3.81,2.13-1.9,1.14-1.91,1.07-1.9,1.14L244.72,161l-1.82,1.07L241,163.2l-3.81,2.13-1.9,1.15-1.91,1.06-.76.46a45,45,0,0,0-21.11-12.19Zm-22.85,0v67.58A44.89,44.89,0,0,0,167.47,168l-.46-.3-1.9-1.07-1.91-1.14-1.9-1.07-1.91-1.07-1.9-1.14-1.91-1.07-1.9-1.06-1.91-1.15-1.9-1.06L148,156.72l-1.9-1.06-1.83-1.07-1.91-1.14-1.9-1.07-1.91-1.14-1.9-1.07-1.9-1.07L132.8,148l-1.9-1.07L129,145.83l-1.9-1.14-1.91-1.07-1.83-1.14-3.81-2.14-1.9-1.14-1.91-1.07-1.9-1.14-1.91-1.07-1.9-1.06-.92-.61A111.91,111.91,0,0,1,188.65,88.23ZM106.21,241l-1.9,1.07-1.91,1.14-3.81,2.13-1,.61a107.44,107.44,0,0,1-5.1-13.56,105.79,105.79,0,0,1-4-19,107.71,107.71,0,0,1,9.07-59.27l.76.45,1.91,1.07,1.83,1.07,1.9,1.14,3.81,2.13,1.9,1.15,1.91,1.06,1.9,1.15,1.91,1.06,1.9,1.07,1.91,1.14,1.9,1.07,1.83,1.07,1.91,1.14,1.9,1.07,1.91,1.14,3.81,2.13,1.9,1.14,1.9,1.07,1.91,1.14,1.9,1.07,1.91,1.07,1.9,1.14,1.83,1.07,1.91,1.06,1.9,1.15,1.91,1.06,1.9,1.15,1.91,1.06.76.46a45.07,45.07,0,0,0,0,24.38l-.46.31-1.52.83-.38.23-1.91,1.14-1.9,1.07L148,216.84l-1.9,1.14-1.91,1.07-1.9,1.14-3.81,2.13-1.91,1.15-1.9,1.06-1.83,1.15-1.9,1.06L129,227.81l-1.9,1.14L125.18,230l-1.9,1.07-1.91,1.14.46.15h-.76l-1.6.92-1.91,1.14-3.81,2.13-1.83,1.14-1.9,1.07-1.91,1.14Zm82.44,70.78a111.91,111.91,0,0,1-79.55-46l.69-.45,1.91-1.07,1.82-1.07,1.91-1.14,1.9-1.07,1.91-1.14,1.9-1.07,1.91-1.06,1.9-1.15,1.91-1.06,1.9-1.15,3.81-2.13,1.83-1.14,3.81-2.14,1.9-1.14L142,246.7l1.9-1.14,1.91-1.07,1.9-1.06,1.91-1.14,1.9-1.07,1.91-1.14,1.9-1.07,1.83-1.07,1.91-1.14,1.9-1.07,1.91-1.06,1.9-1.15,1.9-1.06-.15-.08h.23l.69-.38c.07.15.23.23.3.38a46,46,0,0,0,20.88,11.81Zm21.56-83.2a23.55,23.55,0,0,1-4,1.3c-.91.15-2,.15-2.89.3s-2,.31-3,.31h-.23a19.76,19.76,0,0,1-2.14-.23,11.76,11.76,0,0,1-2.28-.23,18.1,18.1,0,0,1-2.21-.31,13.34,13.34,0,0,1-1.91-.61,16.84,16.84,0,0,1-1.9-.53c-.31-.15-.69-.23-1-.38a28.6,28.6,0,0,1-7.24-4.27,6.22,6.22,0,0,1-.91-.76,34.83,34.83,0,0,1-3-2.82c-.76-.84-1.44-1.67-2.13-2.51-.53-.76-1-1.53-1.45-2.29s-.83-1.44-1.14-2.21h-.08c-.3-.76-.68-1.44-1-2.13s-.38-1.37-.61-2-.45-1.37-.61-2.06-.3-1.22-.45-1.9a4.48,4.48,0,0,0-.08-1.07,37.7,37.7,0,0,1-.38-4.19,37.7,37.7,0,0,1,.38-4.19c.08-.46.08-1,.15-1.45a29.65,29.65,0,0,1,1.07-3.66,25.57,25.57,0,0,1,1.07-3.2c.38-.76.84-1.52,1.29-2.28s.76-1.6,1.3-2.36c.38-.54.91-1.07,1.37-1.68s.91-1.14,1.37-1.68.91-1,1.45-1.52c.45-.38,1-.76,1.45-1.22.3-.23.6-.46.91-.68a28.6,28.6,0,0,1,7.24-4.27c.38-.15.76-.23,1.22-.38a31.33,31.33,0,0,1,4-1.3c.91-.15,2-.15,2.89-.3s2-.31,3-.31h.31a20.4,20.4,0,0,1,2,.23,11.78,11.78,0,0,1,2.29.23,18.67,18.67,0,0,1,2.21.31,13.62,13.62,0,0,1,1.9.61,17,17,0,0,1,1.91.53c.3.15.68.23,1.06.38a29.44,29.44,0,0,1,7.17,4.27,6.79,6.79,0,0,1,.91.76,33.27,33.27,0,0,1,3,2.82c.76.84,1.45,1.67,2.14,2.51.53.76,1,1.53,1.44,2.29s.84,1.44,1.22,2.21.69,1.44,1,2.13.38,1.37.61,2a20.07,20.07,0,0,1,.61,2.06c.15.61.31,1.22.46,1.9a4.52,4.52,0,0,0,.08,1.07,37.56,37.56,0,0,1,.45,4.19,37.56,37.56,0,0,1-.45,4.19c-.08.46-.08,1-.16,1.45a29.62,29.62,0,0,1-1.06,3.66,27.31,27.31,0,0,1-1.07,3.2c-.15.3-.38.53-.53.83a9,9,0,0,1-.76,1.45c-.46.76-.77,1.6-1.3,2.36-.38.54-.91,1.07-1.37,1.68s-.92,1.14-1.37,1.68-.92,1-1.45,1.52c-.46.38-1,.76-1.45,1.22l-.91.68a29.44,29.44,0,0,1-7.17,4.27C211.05,228.34,210.67,228.42,210.21,228.57Zm1.29,83.2V244.19a46.09,46.09,0,0,0,20.8-11.81c.08-.15.23-.23.31-.38l.46.3.23.08,1.67,1,1.91,1.14,3.81,2.14,1.9,1.14,3.81,2.13,1.9,1.15,1.91,1.06,1.9,1.15,1.91,1.06,1.83,1.07,1.9,1.14,1.91,1.07,1.9,1.14,3.81,2.14,1.91,1.14,3.81,2.13,1.9,1.14,1.9,1.07,1.83,1.14,1.91,1.07,1.9,1.07,1.91,1.14,3.81,2.13,1.9,1.15,1.91,1.06.91.61A111.86,111.86,0,0,1,211.5,311.77Zm100-98.44a104.92,104.92,0,0,1-4,19,107.44,107.44,0,0,1-5.1,13.56l-.77-.45-1.9-1.07L298,243.35l-1.9-1.14-1.91-1.07-1.9-1.06-1.91-1.15-1.9-1.06-1.91-1.15-3.81-2.13-1.9-1.14L279,232.38h-.08l-1.83-1.14-1.9-1.07-1.9-1.07L271.39,228l-1.9-1.07-1.91-1.06-1.9-1.14-1.91-1.07-1.9-1.14-3.81-2.14-1.91-1.14-1.83-1.07-1.9-1.06-1.91-1.15-1.9-1.06-1.91-1.15-.68-.38-1.22-.68-.76-.46a43.33,43.33,0,0,0,0-24.38l.45-.31,1.91-1.06,1.9-1.14,3.81-2.14L254,182l1.9-1.07,1.91-1.14,1.9-1.07,1.91-1.06,1.9-1.15,1.91-1.06,1.83-1.15,3.81-2.13,1.9-1.14,3.81-2.14,1.9-1.14,1.91-1.07,1.9-1.14,1.91-1.07,1.9-1.06,1.83-1.14,1.91-1.07,1.9-1.14,3.81-2.14,1.91-1.14,1.9-1.07,1.91-1.06,1-.61a111.51,111.51,0,0,1,9.9,45.94A109.55,109.55,0,0,1,311.54,213.33Z"/><path d="M327.81,57.94l-.65.65a9.13,9.13,0,0,0,.19,13A180.41,180.41,0,0,1,381,200c0,4.49-.15,8.91-.53,13.33a174.81,174.81,0,0,1-2.36,19A180.83,180.83,0,0,1,127.47,365.71H35.28v-91a180.12,180.12,0,0,1-15.62-61.34c-.38-4.42-.61-8.84-.61-13.33,0-99.81,81.22-180.95,181-180.95a179.84,179.84,0,0,1,51.85,7.62,9.63,9.63,0,0,0,11.46-4.8h0A9.6,9.6,0,0,0,257.44,8.4,199.89,199.89,0,0,0,182.64.75C83.43,9.22,4.54,91.62.19,191.1a198.82,198.82,0,0,0,16,87.68v106H123.51a199.77,199.77,0,0,0,153.06,0A200.49,200.49,0,0,0,397.41,232.38c1-6.25,1.68-12.65,2.13-19,.31-4.42.46-8.84.46-13.33A199.45,199.45,0,0,0,340.47,57.76,9,9,0,0,0,327.81,57.94Z"/></svg>