<svg id="图层_1" data-name="图层 1" xmlns="http://www.w3.org/2000/svg" viewBox="0 0 400 400"><title>25</title><path d="M390.13,180.88l-122-140.8C221.24-6.83,144.88-6.85,97.74,40.3L49.79,90.83a11.65,11.65,0,0,0,1.46,17.33h0a11.66,11.66,0,0,0,15.44-1.3l47.73-50.3a97.08,97.08,0,0,1,136.91-.37L357,178.67a7.52,7.52,0,0,1-3.9,12.21L152.27,240.2a11.65,11.65,0,0,0-8.05,14.37h0a11.65,11.65,0,0,0,14.37,8.05l224.07-55.43,10.56-3A9.31,9.31,0,0,0,397.55,189Z"/><path d="M9.87,219.12l122,140.8c46.91,46.91,123.27,46.93,170.41-.22l47.95-50.53a11.65,11.65,0,0,0-1.46-17.33h0a11.66,11.66,0,0,0-15.44,1.3l-47.73,50.3a97.08,97.08,0,0,1-136.91.37L43,221.33a7.52,7.52,0,0,1,3.9-12.21L247.73,159.8a11.65,11.65,0,0,0,8.05-14.37h0a11.65,11.65,0,0,0-14.37-8.05L17.34,192.81l-10.56,3A9.31,9.31,0,0,0,2.45,211Z"/></svg>