<svg id="图层_1" data-name="图层 1" xmlns="http://www.w3.org/2000/svg" viewBox="0 0 400 400"><title>27</title><path d="M369,73.08a8.08,8.08,0,0,1,8,8V319a8.08,8.08,0,0,1-8,8H31.05a8.08,8.08,0,0,1-8-8V81.05a8.08,8.08,0,0,1,8-8H369M369,50H31.05A31.14,31.14,0,0,0,0,81.05V319A31.14,31.14,0,0,0,31.05,350H369A31.14,31.14,0,0,0,400,319V81.05A31.14,31.14,0,0,0,369,50Zm15.67,61.54H15.38v23.08H384.62ZM80.77,250A19.23,19.23,0,1,0,100,269.23,19.23,19.23,0,0,0,80.77,250Zm76.92,0a19.23,19.23,0,1,0,19.23,19.23A19.23,19.23,0,0,0,157.69,250Z"/></svg>