<svg id="图层_1" data-name="图层 1" xmlns="http://www.w3.org/2000/svg" viewBox="0 0 400 400"><title>22</title><path d="M200,400C89.72,400,0,310.28,0,200S89.72,0,200,0,400,89.72,400,200,310.28,400,200,400Zm0-380.95c-99.78,0-180.95,81.17-180.95,181s81.17,181,181,181S381,299.78,381,200,299.78,19.05,200,19.05Z"/><path d="M83.61,277.9l-3.41-3.42a7.1,7.1,0,0,1,0-10.05L147.65,197a15.28,15.28,0,0,1,20.58-.94l22.23,18.53A18.2,18.2,0,0,0,215,213.46l73.52-73.53L302,153.4l-85.16,85.17a19.22,19.22,0,0,1-25.9,1.17l-22.82-19a13.41,13.41,0,0,0-18.07.82L93.66,277.9A7.12,7.12,0,0,1,83.61,277.9Z"/><path d="M302.86,230.48h0a9.53,9.53,0,0,1-9.53-9.53V148.57H221a9.52,9.52,0,0,1-9.52-9.52h0a9.53,9.53,0,0,1,9.52-9.53h81.63a9.8,9.8,0,0,1,9.8,9.8V221A9.53,9.53,0,0,1,302.86,230.48Z"/></svg>