<svg id="图层_1" data-name="图层 1" xmlns="http://www.w3.org/2000/svg" viewBox="0 0 400 400"><defs><style>.cls-1{fill:none;}</style></defs><title>26</title><path class="cls-1" d="M64.29,164.29v69.32A9.25,9.25,0,0,1,55,242.86H46.71A28.86,28.86,0,0,1,17.86,214V193.14a28.85,28.85,0,0,1,28.85-28.85Z"/><path class="cls-1" d="M382.14,193.14V214a28.87,28.87,0,0,1-28.85,28.86H335.71V164.29h17.58A28.86,28.86,0,0,1,382.14,193.14Z"/><path d="M353.29,146.43H335.71a135.71,135.71,0,1,0-271.42,0H46.71A46.71,46.71,0,0,0,0,193.14V214a46.71,46.71,0,0,0,46.71,46.71H71.44a14.3,14.3,0,0,0,14.27-14.28h0V149.76c0-61.45,47.12-114.42,108.49-117.47A114.43,114.43,0,0,1,314.29,146.43v100a118.06,118.06,0,0,1-1,14.28,114.46,114.46,0,0,1-73.15,92.58,25,25,0,0,0-22.28-14H182.14a25,25,0,0,0-22.28,14,23.64,23.64,0,0,0,.5,22.92,24.86,24.86,0,0,0,21.78,13.08h35.72a24.86,24.86,0,0,0,21.78-13.08,135.78,135.78,0,0,0,95.29-115.5h18.36A46.71,46.71,0,0,0,400,214V193.14A46.71,46.71,0,0,0,353.29,146.43ZM55,242.86H46.71A28.86,28.86,0,0,1,17.86,214V193.14a28.85,28.85,0,0,1,28.85-28.85H64.29v69.32A9.25,9.25,0,0,1,55,242.86ZM382.14,214a28.87,28.87,0,0,1-28.85,28.86H335.71V164.29h17.58a28.86,28.86,0,0,1,28.85,28.85Z"/></svg>