<svg id="图层_1" data-name="图层 1" xmlns="http://www.w3.org/2000/svg" viewBox="0 0 400 400"><defs><style>.cls-1{fill:none;}</style></defs><title>23</title><path class="cls-1" d="M263.79,170.69A64.63,64.63,0,0,1,262,185.38l-43-43a26.89,26.89,0,0,0-37.94,0l-43,43a64.63,64.63,0,0,1-1.79-14.69,63.79,63.79,0,0,1,127.58,0Z"/><path class="cls-1" d="M353.45,170.69a153,153,0,0,1-24.48,83,27,27,0,0,0-4.07-5.44l-49.11-49.11a81,81,0,1,0-151.58,0L75.1,248.28A27,27,0,0,0,71,253.72a153,153,0,0,1-24.48-83C46.55,86.07,115.38,17.24,200,17.24S353.45,86.07,353.45,170.69Z"/><path d="M200,0C105.86,0,29.31,76.55,29.31,170.69A170.36,170.36,0,0,0,89.72,300.83L181,392.14a26.82,26.82,0,0,0,37.94,0l91.31-91.31a170.36,170.36,0,0,0,60.41-130.14C370.69,76.55,294.14,0,200,0Zm98.41,288.34-44.2,44.14-47.38,47.45a9.74,9.74,0,0,1-13.66,0l-47.38-47.45-44.13-44.14A153.28,153.28,0,0,1,46.55,170.69C46.55,86.07,115.38,17.24,200,17.24S353.45,86.07,353.45,170.69a153,153,0,0,1-24.48,83A157.22,157.22,0,0,1,298.41,288.34Z"/><path d="M200,89.66a80.87,80.87,0,0,0-75.79,109.51,83.85,83.85,0,0,0,8.2,16.14,80.94,80.94,0,0,0,135.18,0,83.85,83.85,0,0,0,8.2-16.14A80.87,80.87,0,0,0,200,89.66Zm55,113.17a63.71,63.71,0,0,1-117-17.45,64.63,64.63,0,0,1-1.79-14.69,63.79,63.79,0,0,1,127.58,0A64.63,64.63,0,0,1,262,185.38,64,64,0,0,1,255,202.83Z"/></svg>