<svg id="图层_1" data-name="图层 1" xmlns="http://www.w3.org/2000/svg" viewBox="0 0 400 400"><title>24</title><path d="M368,21.74A10.25,10.25,0,0,1,378.26,32V368A10.25,10.25,0,0,1,368,378.26H32A10.25,10.25,0,0,1,21.74,368V32A10.25,10.25,0,0,1,32,21.74H368M368,0H32A32,32,0,0,0,0,32V368a32,32,0,0,0,32,32H368a32,32,0,0,0,32-32V32A32,32,0,0,0,368,0Z"/><path d="M326.09,87H82.61a13,13,0,0,0,0,26.08H326.09a13,13,0,1,0,0-26.08Z"/><path d="M178.26,200H82.61a13,13,0,0,0,0,26.09h95.65a13,13,0,0,0,0-26.09Z"/><path d="M317.39,221.74v68.07l-14.55-9.7a28.62,28.62,0,0,0-31.76,0l-14.56,9.7V221.74h60.87M329.59,200h-85a9.82,9.82,0,0,0-9.82,9.82v107a7.28,7.28,0,0,0,7.3,7.29,7.17,7.17,0,0,0,4-1.23l37-24.69a6.87,6.87,0,0,1,7.64,0l39.4,26.27a5.68,5.68,0,0,0,3.17,1,5.77,5.77,0,0,0,5.78-5.77V209.54a9.54,9.54,0,0,0-9.54-9.54Z"/></svg>