<svg id="图层_1" data-name="图层 1" xmlns="http://www.w3.org/2000/svg" viewBox="0 0 200 200"><defs><style>.cls-1,.cls-2{fill:#ff9000;}.cls-1{opacity:0.3;}.cls-3{fill:#ff5000;}.cls-4{opacity:0.6;}.cls-5{fill:#fff;}</style></defs><title>999</title><path class="cls-1" d="M197.38,83l-91.06,91.06a8.94,8.94,0,0,1-12.64,0L2.62,83a8.94,8.94,0,0,1,0-12.64h0L47.44,25.54a8.93,8.93,0,0,1,6.32-2.62h92.48a8.93,8.93,0,0,1,6.32,2.62l44.82,44.82A8.94,8.94,0,0,1,197.38,83Z"/><path class="cls-2" d="M59,29.16a8,8,0,0,0-5.6,2.3L13.68,70.77a7.76,7.76,0,0,0,0,11.08L94.4,161.72a7.94,7.94,0,0,0,6.85,2.18V29.16Z"/><path class="cls-3" d="M186.32,81.85a7.76,7.76,0,0,0,0-11.08L146.59,31.46a8,8,0,0,0-5.6-2.3H101.25V163.9a7.86,7.86,0,0,0,4.35-2.18Z"/><g class="cls-4"><path class="cls-5" d="M130.62,63l-15.7,52.21h-30L69.12,63H89.58l8.1,34.16h4.38L110.29,63Z"/></g></svg>